<svg width="12" height="10" viewBox="0 0 12 10" fill="none" xmlns="http://www.w3.org/2000/svg">
<path d="M0 0.833333C0 0.372396 0.383036 0 0.857143 0L3.5 0.5L7 0H11.1429C11.617 0 12 0.372396 12 0.833333C12 1.29427 11.617 1.66667 11.1429 1.66667H0.857143C0.383036 1.66667 0 1.29427 0 0.833333ZM0 5C0 4.53906 0.383036 4.16667 0.857143 4.16667H3.5L6 4.5L8.58749 4.16667H11.1429C11.617 4.16667 12 4.53906 12 5C12 5.46094 11.617 5.83333 11.1429 5.83333L8.5 5.5L6.5 5.83333H0.857143C0.383036 5.83333 0 5.46094 0 5ZM12 9.16667C12 9.6276 11.617 10 11.1429 10H5.5L4.5 9.5L3 10H0.857143C0.383036 10 0 9.6276 0 9.16667C0 8.70573 0.383036 8.33333 0.857143 8.33333H4.4003L8 9L9.5 8.33333H11.1429C11.617 8.33333 12 8.70573 12 9.16667Z" fill="white"/>
</svg>
